# xmcd CD database file
#
# Track frame offsets:
#	150
#	28467
#	55232
#	108372
#	144767
#	179715
#	212605
#	243192
#	300842
#
# Disc length: 4134 seconds
#
# Revision: 0
# Processed by: cddbd v1.5.1PL0 Copyright (c) Steve Scherf et al.
# Submitted via: CDex 1.51
#
DISCID=75102409
DTITLE=Fragile - LIVE
DYEAR=2003
DGENRE=Jazz
TTITLE0=Bluff
TTITLE1=Wager
TTITLE2=Yo-shu Merchandise
TTITLE3=Handle with Care
TTITLE4=Tarama
TTITLE5=Sensitizing
TTITLE6=Concave and Convex
TTITLE7=ZANN
TTITLE8=O-MA-KE
EXTD=YEAR: 2003
EXTT0=
EXTT1=
EXTT2=
EXTT3=
EXTT4=
EXTT5=
EXTT6=
EXTT7=
EXTT8=
PLAYORDER=
